<svg height="56" viewBox="0 0 56 56" width="56" xmlns="http://www.w3.org/2000/svg"><path d="m1.9205 50.6968 3.4482 3.4482c1.8986 1.855 4.0592 1.7022 5.9797-.4147l22.8497-24.8792c.9384.6547 1.8113.6329 2.8807.4147l2.3352-.4802 1.5496 1.5495-.1091 1.1567c-.1528 1.2003.1963 2.1169 1.3092 3.2299l1.8334 1.8114c1.1129 1.1348 2.5968 1.2003 3.6663.1309l7.2675-7.2673c1.0691-1.0694 1.0038-2.5316-.1091-3.6664l-1.8334-1.8332c-1.1129-1.1131-2.0515-1.5059-3.2301-1.3313l-1.1782.1309-1.4843-1.484.6548-2.5534c.3057-1.2657-.0219-2.2915-1.3967-3.6446l-5.3903-5.3686c-7.9222-7.8784-18.0703-7.6384-25.0104-.6329-.9602.9602-1.0475 2.2697-.4364 3.2299.5019.8293 1.5713 1.3313 3.0335.9603 3.3827-.8512 6.7654-.5893 10.0827 1.6586l-1.3968 3.5355c-.5238 1.3094-.4801 2.3787.0437 3.3608l-24.9447 22.9588c-2.0951 1.9423-2.3352 4.0592-.4147 5.9797zm17.5028-40.8107c5.9579-4.452 13.378-3.7319 18.7467 1.6368l5.8704 5.827c.5239.5238.5896.9384.4367 1.5932l-.8291 3.4918 3.5135 3.5136 2.1387-.1964c.6329-.0655.8291-.0218 1.3529.4801l1.3753 1.3968-6.1327 6.1543-1.3967-1.3967c-.5019-.502-.5457-.6984-.48-1.3313l.1962-2.1606-3.4916-3.4918-3.623.6984c-.6329.1309-.9602.1309-1.5058-.4147l-4.8449-4.8667c-.5238-.5238-.5893-.8293-.3056-1.5277l2.1388-5.1067c-3.5791-3.4264-8.3149-5.3251-12.8761-3.8629-.1964.0655-.3274.0218-.3928-.0655-.0655-.1091-.0655-.2182.1091-.371zm-14.6657 39.2394c-1.113-1.113-.7202-1.7896.0218-2.4661l24.5083-22.6095 2.7279 2.7497-22.675 24.421c-.6765.742-1.5276.9602-2.4442.0655z"/></svg>